PathFileType	4	(X/Y/Z)	OpenSim_Sub06_CSBaseline_Magnet.trc
DataRate	CameraRate	NumFrames	NumMarkers	Units	OrigDataRate	OrigDataStartFrame	OrigNumFrames
100	100	23	8	m	100	3185	8492
Frame#	Time	torso_imu_offset_imu	pelvis_imu_offset_imu	tibia_r_imu_offset_imu	femur_r_imu_offset_imu	tibia_l_imu_offset_imu	femur_l_imu_offset_imu	toes_r_imu_offset_imu	toes_l_imu_offset_imu
				X1	Y1	Z1	X2	Y2	Z2	X3	Y3	Z3	X4	Y4	Z4	X5	Y5	Z5	X6	Y6	Z6	X7	Y7	Z7	X8		Y8	Z8	

3185	31.84000000	-0.97027743	-0.10864379	0.08617757	-0.48782771	0.16236501	-0.82230516	-0.37514309	-0.67735252	-0.32028047	-0.59743450	-0.48284523	0.19242675	-0.75221450	0.40194557	0.03910760	-0.50589700	0.15142958	0.45706962	-0.57822646	-0.48941668	-0.59373036	-0.71787474	-0.05796979	-0.50444666
3186	31.85000000	-0.96554411	-0.11202517	0.08651113	-0.48633687	0.16616017	-0.82305530	-0.36417725	-0.68900631	-0.31625029	-0.59896654	-0.49074235	0.19718147	-0.74856653	0.39726181	0.04245500	-0.50132576	0.15317676	0.45779435	-0.58057959	-0.49375331	-0.58832698	-0.72160894	-0.06292492	-0.51164163
3187	31.86000000	-0.97164403	-0.11015780	0.08473034	-0.48591825	0.16811092	-0.81878902	-0.35780597	-0.69422732	-0.31506252	-0.60332378	-0.48740645	0.19098017	-0.75421616	0.39348332	0.04031759	-0.49747527	0.16220342	0.45526184	-0.57847420	-0.50365434	-0.57366369	-0.71386101	-0.06241695	-0.51634579
3188	31.87000000	-0.97178224	-0.11809577	0.07823145	-0.48827558	0.17833344	-0.81457593	-0.34378569	-0.69760212	-0.31801015	-0.60171752	-0.49052610	0.19055117	-0.75493943	0.38370669	0.04526369	-0.49026265	0.15871961	0.45921319	-0.57608955	-0.50630349	-0.56690948	-0.71160418	-0.07013645	-0.51514147
3189	31.88000000	-0.97212636	-0.11532532	0.07806221	-0.48906638	0.18122952	-0.80755343	-0.32662291	-0.71002026	-0.31058019	-0.59902731	-0.49527344	0.18459642	-0.75132936	0.39571123	0.04246878	-0.49209883	0.15796392	0.46373414	-0.57964309	-0.51380749	-0.55646214	-0.72351348	-0.05152496	-0.50263861
3190	31.89000000	-0.96790670	-0.10991388	0.07343021	-0.48454714	0.18105639	-0.80706696	-0.31128280	-0.71699351	-0.31858045	-0.60302302	-0.49342919	0.17946349	-0.74451902	0.40099004	0.04825505	-0.48853183	0.16024874	0.47062214	-0.58346834	-0.52427306	-0.55054594	-0.73140919	-0.04696220	-0.48162529
3191	31.90000000	-0.96982158	-0.11773115	0.07400741	-0.48803533	0.18305729	-0.80695955	-0.30074050	-0.72062430	-0.31492749	-0.60716760	-0.49290728	0.17713133	-0.74277356	0.40908938	0.04869604	-0.48430296	0.16070213	0.47230282	-0.58964629	-0.53097969	-0.53038465	-0.75906180	-0.02072315	-0.46040724
3192	31.91000000	-0.96537425	-0.12275621	0.06330584	-0.49490421	0.18692085	-0.80804671	-0.28461882	-0.73125969	-0.31600335	-0.61323682	-0.49695324	0.17260154	-0.73210538	0.42170127	0.04550654	-0.47536793	0.15888284	0.48767954	-0.59178823	-0.53678159	-0.51504610	-0.73473283	-0.00372107	-0.51259508
3193	31.92000000	-0.97113573	-0.12271881	0.06509998	-0.49753682	0.19319573	-0.79480070	-0.26301015	-0.73341919	-0.31672827	-0.61742022	-0.49622881	0.17230164	-0.72793403	0.44378667	0.04634158	-0.47049976	0.15274026	0.49319003	-0.59569457	-0.54702252	-0.49865577	-0.74299978	-0.04560471	-0.48204254
3194	31.93000000	-0.97155920	-0.12895007	0.05520246	-0.50172017	0.19523371	-0.79311266	-0.25368317	-0.74343453	-0.30921633	-0.62389055	-0.48381015	0.16767462	-0.71985946	0.45370766	0.04740047	-0.46382177	0.14958481	0.49914070	-0.59717222	-0.55723205	-0.47996849	-0.74764154	-0.03354248	-0.48004179
3195	31.94000000	-0.97156114	-0.12942053	0.05194574	-0.50595291	0.19821337	-0.79835016	-0.23778521	-0.74823475	-0.31350485	-0.62995820	-0.48110372	0.16512127	-0.71039639	0.46199422	0.05979452	-0.46342386	0.15766498	0.51081598	-0.60533051	-0.56817452	-0.45788438	-0.74984265	-0.01702359	-0.47534336
3196	31.95000000	-0.96760853	-0.13115521	0.05195493	-0.51006461	0.18786420	-0.79202690	-0.21889178	-0.75234084	-0.30521100	-0.64082689	-0.47567393	0.15869550	-0.71017944	0.46910976	0.06867604	-0.46408123	0.16485936	0.51134517	-0.60764605	-0.57383324	-0.42649796	-0.75390932	-0.02790189	-0.46580149
3197	31.96000000	-0.96288334	-0.13305465	0.05242660	-0.51446527	0.19083033	-0.78437644	-0.19999324	-0.75602655	-0.30412403	-0.64527643	-0.46737987	0.14884988	-0.70659740	0.46969734	0.08301124	-0.46134945	0.16166729	0.51167608	-0.61463907	-0.59417354	-0.40114335	-0.75893382	-0.02048332	-0.46077740
3198	31.97000000	-0.96257506	-0.13800199	0.04828742	-0.51719323	0.19174979	-0.78641236	-0.17894721	-0.76670666	-0.30186258	-0.65905442	-0.45767924	0.14397771	-0.69576668	0.46898628	0.10914988	-0.46374213	0.15450475	0.50709358	-0.62523322	-0.60125519	-0.36699684	-0.76095370	-0.02175393	-0.46109252
3199	31.98000000	-0.96287541	-0.12936471	0.04559050	-0.51477821	0.18900074	-0.78628741	-0.15786349	-0.76720530	-0.29947323	-0.67669406	-0.44121992	0.12995294	-0.68198394	0.47765670	0.13177066	-0.45353399	0.15805728	0.50872757	-0.62791078	-0.62075136	-0.32295311	-0.76541476	-0.02142855	-0.45242986
3200	31.99000000	-0.96418979	-0.13861444	0.04381208	-0.51917060	0.19504657	-0.78897893	-0.14075614	-0.77291544	-0.29728264	-0.68972753	-0.43020563	0.12037536	-0.68072940	0.47976557	0.14434143	-0.45220735	0.16278746	0.51266298	-0.62517963	-0.63741830	-0.28508651	-0.76608298	-0.03237647	-0.44954225
3201	32.00000000	-0.96872099	-0.14430272	0.04203757	-0.51522514	0.19572703	-0.78522232	-0.11859442	-0.77365484	-0.29250823	-0.70246006	-0.42077429	0.10394704	-0.68398174	0.49021397	0.14244322	-0.45364721	0.16506953	0.52788032	-0.62696609	-0.66333294	-0.23797300	-0.75837718	-0.02902622	-0.44590182
3202	32.01000000	-0.96488800	-0.13988538	0.03517539	-0.51529554	0.19680469	-0.77767105	-0.09443173	-0.77308712	-0.29386580	-0.71598969	-0.39890682	0.09383016	-0.67799905	0.49799872	0.13728048	-0.43895301	0.16909222	0.53725026	-0.61166836	-0.68636268	-0.18754936	-0.77168599	-0.03050843	-0.43491055
3203	32.02000000	-0.96625779	-0.14564777	0.03726944	-0.51124685	0.20877529	-0.77969958	-0.08748033	-0.77907378	-0.29892147	-0.72471307	-0.37753672	0.07693621	-0.67304630	0.49570612	0.13527669	-0.42991505	0.17976171	0.54813389	-0.58982081	-0.70859760	-0.13638734	-0.76359140	-0.03494068	-0.42741839
3204	32.03000000	-0.96680939	-0.14796262	0.03343050	-0.51566716	0.22011628	-0.78502356	-0.06927560	-0.77975897	-0.29419704	-0.73948792	-0.36099542	0.06939138	-0.67134509	0.50359500	0.13213527	-0.42121274	0.18655837	0.55759511	-0.57504736	-0.73139760	-0.09607040	-0.76709411	-0.03949511	-0.42491574
3205	32.04000000	-0.96261675	-0.15208588	0.03277454	-0.51193862	0.22262516	-0.78579459	-0.06009951	-0.77770648	-0.30056402	-0.75103533	-0.34437158	0.05037441	-0.66475580	0.51248548	0.13397898	-0.41492501	0.20095072	0.56003497	-0.54798930	-0.74952149	-0.05226156	-0.76282703	-0.04160952	-0.42289289
3206	32.05000000	-0.95990656	-0.15224336	0.03757366	-0.51143683	0.22848265	-0.77920952	-0.04984971	-0.77753669	-0.29884382	-0.75989141	-0.32971957	0.04688228	-0.66280476	0.52175767	0.13142092	-0.40859297	0.21496239	0.56435850	-0.52662350	-0.77166507	-0.01152897	-0.76872952	-0.04630076	-0.41613029
3207	32.06000000	-0.96186877	-0.15620374	0.03347806	-0.51408792	0.23655134	-0.77640580	-0.04553393	-0.77767672	-0.30218133	-0.76697383	-0.31703247	0.03528216	-0.65576589	0.52050363	0.13262860	-0.40821120	0.22140312	0.56469772	-0.49705775	-0.79212181	0.02000141	-0.76762573	-0.04406835	-0.41596856
